<svg xmlns="http://www.w3.org/2000/svg" width="0.66in" height="1.09in" viewBox="0 0 47.44 78.77">
  <defs>
    <style>
      .cls-1 {
        fill: none;
      }

      .cls-1, .cls-2, .cls-3, .cls-4, .cls-5 {
        stroke: #231f20;
        stroke-miterlimit: 10;
        stroke-width: 2px;
      }

      .cls-2 {
        fill: #ec5563;
      }

      .cls-3 {
        fill: #f1c24c;
      }

      .cls-4 {
        fill: #965253;
      }

      .cls-5 {
        fill: #ffcf54;
      }
    </style>
  </defs>
  <g id="arrow">
    <polygon class="cls-1" points="41.99 11.51 46.25 10.26 46.43 23.77 41.81 26.43 37.19 23.59 37.01 10.26 41.99 11.51"/>
    <line class="cls-1" x1="41.81" y1="6.53" x2="41.81" y2="64.46"/>
    <path id="heart" class="cls-2" d="M41.81,64.42s1.71-1.68,2.93,0c0,0,1.25,1.53-1.15,3.6l-1.74,1.35-1.74-1.3S38,66.53,38.75,64.76C38.75,64.76,39.64,62.74,41.81,64.42Z"/>
  </g>
  <g id="arch">
    <rect class="cls-3" x="19.28" y="34.21" width="6.56" height="5.15"/>
    <path class="cls-4" d="M1,3.59S.5,8.48,5.65,12.21l11.7,7.46s6.28,3.24,3.48,10.68L19.4,34.26l6.44,0s6.66-8.57.18-16.09a17.55,17.55,0,0,0-7.64-4.76S3.07,7.83,1,3.59Z"/>
    <rect class="cls-5" x="19.29" y="39.42" width="6.56" height="5.15"/>
    <path class="cls-4" d="M1,75.18S.5,70.29,5.65,66.56L17.36,59.1s6.28-3.24,3.47-10.68L19.4,44.51l6.45.05s6.65,8.57.18,16.09a17.55,17.55,0,0,1-7.64,4.76S3.08,70.94,1,75.18Z"/>
    <line class="cls-1" x1="5.65" y1="12.21" x2="5.65" y2="66.56"/>
  </g>
</svg>
