<svg xmlns="http://www.w3.org/2000/svg" width="0.86in" height="1.31in" viewBox="0 0 61.76 93.97">
  <defs>
    <style>
      .cls-1 {
        fill: #f26d53;
      }

      .cls-1, .cls-2, .cls-3 {
        stroke: #231f20;
        stroke-miterlimit: 10;
        stroke-width: 2px;
      }

      .cls-2 {
        fill: #ffcf54;
      }

      .cls-3 {
        fill: #ec5563;
      }
    </style>
  </defs>
  <g id="fire">
    <g id="fire-2" data-name="fire">
      <path class="cls-1" d="M1,47.83s.25-11,4.64-13.93c0,0,5.76,6.44,9.06,7,0,0-6.46-32.53,29.47-39.64,0,0-2.52,12.61,3.89,24.47,0,0,15.15,13.11,12.35,28.62,0,0-5.67,17.38-30.58,17.26C29.83,71.62,2.21,73.07,1,47.83Z"/>
      <path class="cls-2" d="M34.3,32.65s5.42,10.67,7.56,13.76c0,0,7.69,14.5-8.64,16.71,0,0-15.93.38-11.14-14.79C22.08,48.33,24,39.65,34.3,32.65Z"/>
    </g>
  </g>
  <g id="heart">
    <path class="cls-3" d="M30.72,55.75s12.74-12.45,21.84.08c0,0,9.35,11.42-8.53,26.88l-13,10L18.09,83S2.34,71.51,7.93,58.3C7.93,58.3,14.58,43.24,30.72,55.75Z"/>
  </g>
</svg>
