<svg xmlns="http://www.w3.org/2000/svg" width="0.87in" height="1.02in" viewBox="0 0 62.35 73.29">
  <defs>
    <style>
      .cls-1 {
        fill: #e7e9eb;
      }

      .cls-1, .cls-2, .cls-3, .cls-4, .cls-5 {
        stroke: #231f20;
        stroke-miterlimit: 10;
      }

      .cls-1, .cls-2, .cls-4 {
        stroke-width: 2px;
      }

      .cls-2 {
        fill: #ec5563;
      }

      .cls-3 {
        fill: none;
      }

      .cls-4 {
        fill: #52c2e8;
      }

      .cls-5 {
        fill: #d8d9da;
        stroke-width: 1.5px;
      }
    </style>
  </defs>
  <g id="box">
    <path class="cls-1" d="M1,4v11.8l6.39,21L1.16,58.27l.17,11.47s1,2.63,30.64,2.46c0,0,25.57.82,29.33-2.46V58.27L55.24,36.64l5.9-21.14V3.87S60.65.43,30.66,1.08C30.66,1.08,3.9.48,1,4Z"/>
    <path class="cls-2" d="M1.46,15.33H61.27V3.62S61.15.9,31,1.14c0,0-28.49-.36-29.61,2.77Z"/>
    <path class="cls-2" d="M1.47,58.67H61.28l.07,11.39s.26,2.37-30.27,2.2c0,0-26.55.26-29.75-2.52Z"/>
    <line class="cls-3" x1="14.19" y1="36.73" x2="7.39" y2="36.81"/>
    <line class="cls-3" x1="48.55" y1="36.81" x2="55.24" y2="36.64"/>
  </g>
  <g id="ring">
    <polygon id="diamond" class="cls-4" points="28.27 27.63 34.47 27.55 36 29.77 31.64 33.98 27.05 30 28.27 27.63"/>
    <path id="ring-2" data-name="ring" class="cls-5" d="M16.75,48.35A14.26,14.26,0,0,1,23.22,36.2s7.81-5.59,16-.16A14.93,14.93,0,0,1,45.85,48h-2A14.24,14.24,0,0,0,38.18,38,12.6,12.6,0,0,0,24,38.12,12.86,12.86,0,0,0,19,48.33Z"/>
  </g>
</svg>
