<svg id="dialogue" xmlns="http://www.w3.org/2000/svg" width="0.99in" height="0.75in" viewBox="0 0 71.58 53.78">
  <defs>
    <style>
      .cls-1 {
        fill: #e687b8;
      }

      .cls-1, .cls-2, .cls-3 {
        stroke: #231f20;
        stroke-miterlimit: 10;
        stroke-width: 2px;
      }

      .cls-2 {
        fill: #a592c5;
      }

      .cls-3 {
        fill: #fff;
      }
    </style>
  </defs>
  <polygon id="pink" class="cls-1" points="64.21 43.78 70.58 43.78 70.58 7.19 20.51 7.19 20.51 43.93 50.88 43.93 64.31 52 64.21 43.78"/>
  <polygon id="purple" class="cls-2" points="7.37 37.59 1 37.59 1 1 51.08 1 51.08 37.74 20.7 37.74 7.27 45.81 7.37 37.59"/>
  <path id="white_heart" data-name="white heart" class="cls-3" d="M26,12.74s6.07-5.94,10.41,0c0,0,4.45,5.44-4.07,12.8l-6.19,4.77L20,25.75S12.5,20.25,15.16,14C15.16,14,18.33,6.77,26,12.74Z"/>
</svg>
