<svg xmlns="http://www.w3.org/2000/svg" width="1.01in" height="0.45in" viewBox="0 0 73.06 32.08">
  <defs>
    <style>
      .cls-1 {
        fill: #fff;
      }

      .cls-1, .cls-2 {
        stroke: #231f20;
        stroke-miterlimit: 10;
        stroke-width: 2px;
      }

      .cls-2 {
        fill: #ec5563;
      }
    </style>
  </defs>
  <g id="wings">
    <path class="cls-1" d="M47.32,12.29S53.16,4.06,62.7,4.42c0,0,6.8-.24,9.18-2.39,0,0,2.39,10.38-10.25,11.45a15.94,15.94,0,0,0,7.62-2.63s2.16,9.9-10.48,10.26a16.3,16.3,0,0,0,6.54-1.41S63.19,29.46,47,27C47,27,39.15,25.1,47.32,12.29Z"/>
    <path class="cls-1" d="M25.74,12.13S19.9,3.91,10.36,4.26c0,0-6.8-.23-9.18-2.38,0,0-2.39,10.37,10.25,11.45A16.07,16.07,0,0,1,3.81,10.7S1.66,20.6,14.29,21a16.35,16.35,0,0,1-6.53-1.42s2.11,9.77,18.29,7.27C26.05,26.81,33.91,24.94,25.74,12.13Z"/>
  </g>
  <g id="heart">
    <path class="cls-2" d="M36,9.2s7.46-7.29,12.78.05c0,0,5.47,6.68-5,15.72l-7.6,5.85-7.58-5.65s-9.22-6.75-5.94-14.48C22.63,10.69,26.51,1.88,36,9.2Z"/>
  </g>
</svg>
